<?xml version="1.0" encoding="UTF-8"?>
<svg width="152px" height="152px" viewBox="0 0 152 152" version="1.1" xmlns="http://www.w3.org/2000/svg" xmlns:xlink="http://www.w3.org/1999/xlink">
    <!-- Generator: Sketch 49.1 (51147) - http://www.bohemiancoding.com/sketch -->
    <title>Group 2</title>
    <desc>Created with Sketch.</desc>
    <defs></defs>
    <g id="Page-1" stroke="none" stroke-width="1" fill="none" fill-rule="evenodd">
        <g id="Group-2">
            <circle id="Oval" fill="#B7B7B7" cx="76" cy="76" r="76"></circle>
            <g id="Group" transform="translate(30.000000, 17.000000)" fill="#FFFFFF" fill-rule="nonzero">
                <g id="Shape">
                    <path d="M90.3951111,57.2035517 L63.2510222,30.1937586 L51.6876444,44.7972759 L64.1567111,57.2035517 C65.3056889,58.3489655 65.3056889,60.2206897 64.1567111,61.364069 L60.5482667,64.954931 C60.5482667,64.954931 62.9791111,68.5742759 63.0915556,68.7960345 C63.6517333,69.915 63.7866667,72.5415172 62.1960889,73.7438966 L33.8396444,95.403 C33.8335111,102.670172 33.8253333,117.619552 33.8355556,117.625655 C33.8416889,117.62769 90.3951111,61.3661034 90.3951111,61.3661034 C91.5461333,60.2186552 91.5461333,58.351 90.3951111,57.2035517 Z"></path>
                    <path d="M27.3444444,60.6052069 C26.1954667,59.4618276 26.1954667,57.5962069 27.3444444,56.4487586 L30.9549333,52.8558621 L28.4872889,49.3260345 C27.3096889,47.6658966 27.6776889,45.307931 29.3030222,44.073 L57.6615111,22.4098276 L57.6819556,0.203448276 L57.6635556,0.191241379 L57.6492444,0.170896552 L1.10195556,56.4487586 C-0.0490666667,57.5962069 -0.0490666667,59.4618276 1.104,60.6092759 L28.2460444,87.619069 L39.8114667,73.0094483 L27.3444444,60.6052069 Z"></path>
                </g>
                <g transform="translate(19.000000, 14.000000)" id="Shape">
                    <path d="M40.8024643,55.3277391 C41.1241071,55.8161304 41.4111429,57.6573043 40.6070357,58.2703478 L0.816964286,88.9266087 C0.483107143,89.1881739 0.267321429,89.3107826 0.173678571,89.3046522 C0.0372857143,89.3128261 0.135,89.0696522 0.501428571,88.5976087 L25.2333214,57.0892174 C25.8582857,56.28 25.899,54.9476522 25.3249286,54.1159565 L11.52075,34.1736522 C11.52075,34.1736522 40.4808214,54.8373043 40.8024643,55.3277391 Z"></path>
                    <path d="M40.8024643,55.6385666 L27.2059286,35.8955607 C26.6298214,35.0570944 26.6766429,33.7151372 27.2955,32.9177721 L52.0294286,1.21840019 C52.3978929,0.745735323 52.4935714,0.507347826 52.36125,0.507347826 C52.2615,0.507347826 52.0436786,0.62448651 51.7159286,0.887534782 L11.9258571,31.7196694 C11.1258214,32.3382439 10.9405714,33.5342915 11.52075,34.3665927 L40.8024643,55.6385666 Z"></path>
                </g>
            </g>
        </g>
    </g>
</svg>