<?xml version="1.0" encoding="UTF-8"?>
<svg width="53px" height="90px" viewBox="0 0 53 90" version="1.1" xmlns="http://www.w3.org/2000/svg" xmlns:xlink="http://www.w3.org/1999/xlink">
    <!-- Generator: Sketch 49.1 (51147) - http://www.bohemiancoding.com/sketch -->
    <title>icon-mask</title>
    <desc>Created with Sketch.</desc>
    <defs></defs>
    <g id="Page-1" stroke="none" stroke-width="1" fill="none" fill-rule="evenodd">
        <g id="icon-mask" fill="#FFFFFF" fill-rule="nonzero">
            <g id="Shape">
                <path d="M40.8024643,55.3277391 C41.1241071,55.8161304 41.4111429,57.6573043 40.6070357,58.2703478 L0.816964286,88.9266087 C0.483107143,89.1881739 0.267321429,89.3107826 0.173678571,89.3046522 C0.0372857143,89.3128261 0.135,89.0696522 0.501428571,88.5976087 L25.2333214,57.0892174 C25.8582857,56.28 25.899,54.9476522 25.3249286,54.1159565 L11.52075,34.1736522 C11.52075,34.1736522 40.4808214,54.8373043 40.8024643,55.3277391 Z"></path>
                <path d="M40.8024643,55.6385666 L27.2059286,35.8955607 C26.6298214,35.0570944 26.6766429,33.7151372 27.2955,32.9177721 L52.0294286,1.21840019 C52.3978929,0.745735323 52.4935714,0.507347826 52.36125,0.507347826 C52.2615,0.507347826 52.0436786,0.62448651 51.7159286,0.887534782 L11.9258571,31.7196694 C11.1258214,32.3382439 10.9405714,33.5342915 11.52075,34.3665927 L40.8024643,55.6385666 Z"></path>
            </g>
        </g>
    </g>
</svg>